<svg width="14" height="206" viewBox="0 0 14 206" fill="none" xmlns="http://www.w3.org/2000/svg">
<path d="M0.454014 195.948L13 195.948L13 197.586L7.31201 197.586L7.31201 203.976L13 203.976L13 205.614L0.454015 205.614L0.454015 203.976L5.96201 203.976L5.96201 197.586L0.454014 197.586L0.454014 195.948ZM10.21 184.735L10.21 190.207L13 191.215L13 192.943L0.526014 188.407L0.526014 186.517L13 181.999L13 183.727L10.21 184.735ZM8.87801 185.203L2.54201 187.471L8.87801 189.739L8.87801 185.203ZM13 169.158L13 170.796L3.01001 177.384L13 177.384L13 179.022L0.436014 179.022L0.436014 177.384L10.408 170.796L0.436013 170.796L0.436013 169.158L13 169.158ZM0.454013 161.46C0.454013 160.092 0.712013 158.91 1.22801 157.914C1.73201 156.906 2.45801 156.138 3.40601 155.61C4.35401 155.07 5.47001 154.8 6.75401 154.8C8.03801 154.8 9.15401 155.07 10.102 155.61C11.038 156.138 11.758 156.906 12.262 157.914C12.754 158.91 13 160.092 13 161.46L13 165.366L0.454013 165.366L0.454013 161.46ZM11.65 161.46C11.65 159.84 11.224 158.604 10.372 157.752C9.50801 156.9 8.30201 156.474 6.75401 156.474C5.19401 156.474 3.97601 156.906 3.10001 157.77C2.22401 158.622 1.78601 159.852 1.78601 161.46L1.78601 163.728L11.65 163.728L11.65 161.46ZM6.71801 146.453C5.49401 146.453 4.39601 146.177 3.42401 145.625C2.44001 145.073 1.67201 144.323 1.12001 143.375C0.568012 142.415 0.292012 141.353 0.292012 140.189C0.292012 138.821 0.622012 137.627 1.28201 136.607C1.94201 135.587 2.87801 134.843 4.09001 134.375L4.09001 136.337C3.33401 136.685 2.75201 137.189 2.34401 137.849C1.93601 138.497 1.73201 139.277 1.73201 140.189C1.73201 141.065 1.93601 141.851 2.34401 142.547C2.75201 143.243 3.33401 143.789 4.09001 144.185C4.83401 144.581 5.71001 144.779 6.71801 144.779C7.71401 144.779 8.59001 144.581 9.34601 144.185C10.09 143.789 10.666 143.243 11.074 142.547C11.482 141.851 11.686 141.065 11.686 140.189C11.686 139.277 11.488 138.497 11.092 137.849C10.684 137.189 10.102 136.685 9.34601 136.337L9.34601 134.375C10.546 134.843 11.476 135.587 12.136 136.607C12.784 137.627 13.108 138.821 13.108 140.189C13.108 141.353 12.838 142.415 12.298 143.375C11.746 144.323 10.984 145.073 10.012 145.625C9.04001 146.177 7.94201 146.453 6.71801 146.453ZM13 124.33L7.87001 127.318L7.87001 129.298L13 129.298L13 130.936L0.454011 130.936L0.454011 126.886C0.454011 125.938 0.616011 125.14 0.940011 124.492C1.26401 123.832 1.70201 123.34 2.25401 123.016C2.80601 122.692 3.43601 122.53 4.14401 122.53C5.00801 122.53 5.77001 122.782 6.43001 123.286C7.09001 123.778 7.52801 124.522 7.74401 125.518L13 122.368L13 124.33ZM6.55601 129.298L6.55601 126.886C6.55601 125.998 6.34001 125.332 5.90801 124.888C5.46401 124.444 4.87601 124.222 4.14401 124.222C3.40001 124.222 2.82401 124.444 2.41601 124.888C2.00801 125.32 1.80401 125.986 1.80401 126.886L1.80401 129.298L6.55601 129.298ZM10.21 111.569L10.21 117.041L13 118.049L13 119.777L0.526011 115.241L0.526011 113.351L13 108.833L13 110.561L10.21 111.569ZM8.87801 112.037L2.54201 114.305L8.87801 116.573L8.87801 112.037ZM0.45401 98.7642L1.78601 98.7642L1.78601 104.218L6.01601 104.218L6.01601 99.7902L7.34801 99.7902L7.34801 104.218L13 104.218L13 105.856L0.45401 105.856L0.45401 98.7642ZM0.45401 88.0639L1.78601 88.0639L1.78601 91.4839L13 91.4839L13 93.1219L1.78601 93.1219L1.78601 96.5599L0.45401 96.5599L0.45401 88.0639ZM4.12601 70.8608C5.17001 70.8608 6.04001 71.2208 6.73601 71.9408C7.42001 72.6488 7.76201 73.7348 7.76201 75.1988L7.76201 77.6108L13 77.6108L13 79.2488L0.454009 79.2488L0.454009 75.1988C0.454009 73.7828 0.796009 72.7088 1.48001 71.9768C2.16401 71.2328 3.04601 70.8608 4.12601 70.8608ZM6.41201 75.1988C6.41201 74.2868 6.21401 73.6148 5.81801 73.1828C5.42201 72.7508 4.85801 72.5348 4.12601 72.5348C2.57801 72.5348 1.80401 73.4228 1.80401 75.1988L1.80401 77.6108L6.41201 77.6108L6.41201 75.1988ZM13.126 62.1369C13.126 63.3009 12.856 64.3629 12.316 65.3229C11.764 66.2829 11.002 67.0449 10.03 67.6089C9.04601 68.1609 7.94201 68.4369 6.71801 68.4369C5.49401 68.4369 4.39601 68.1609 3.42401 67.6089C2.44001 67.0449 1.67801 66.2829 1.13801 65.3229C0.586008 64.3629 0.310008 63.3009 0.310008 62.1369C0.310008 60.9609 0.586008 59.8929 1.13801 58.9329C1.67801 57.9729 2.43401 57.2169 3.40601 56.6649C4.37801 56.1129 5.48201 55.8369 6.71801 55.8369C7.95401 55.8369 9.05801 56.1129 10.03 56.6649C11.002 57.2169 11.764 57.9729 12.316 58.9329C12.856 59.8929 13.126 60.9609 13.126 62.1369ZM11.704 62.1369C11.704 61.2609 11.5 60.4749 11.092 59.7789C10.684 59.0709 10.102 58.5189 9.34601 58.1229C8.59001 57.7149 7.71401 57.5109 6.71801 57.5109C5.71001 57.5109 4.83401 57.7149 4.09001 58.1229C3.33401 58.5189 2.75201 59.0649 2.34401 59.7609C1.93601 60.4569 1.73201 61.2489 1.73201 62.1369C1.73201 63.0249 1.93601 63.8169 2.34401 64.5129C2.75201 65.2089 3.33401 65.7609 4.09001 66.1689C4.83401 66.5649 5.71001 66.7629 6.71801 66.7629C7.71401 66.7629 8.59001 66.5649 9.34601 66.1689C10.102 65.7609 10.684 65.2089 11.092 64.5129C11.5 63.8049 11.704 63.0129 11.704 62.1369ZM0.454008 44.9525L1.78601 44.9525L1.78601 48.3725L13 48.3725L13 50.0105L1.78601 50.0105L1.78601 53.4485L0.454008 53.4485L0.454008 44.9525ZM0.454007 34.2143L1.78601 34.2143L1.78601 37.6343L13 37.6343L13 39.2723L1.78601 39.2723L1.78601 42.7103L0.454008 42.7103L0.454007 34.2143ZM1.78601 29.56L5.98001 29.56L5.98001 24.988L7.33001 24.988L7.33001 29.56L11.65 29.56L11.65 24.448L13 24.448L13 31.198L0.436007 31.198L0.436007 24.448L1.78601 24.448L1.78601 29.56ZM13 14.3635L7.87001 17.3515L7.87001 19.3315L13 19.3315L13 20.9695L0.454007 20.9695L0.454006 16.9195C0.454006 15.9715 0.616006 15.1735 0.940007 14.5255C1.26401 13.8655 1.70201 13.3735 2.25401 13.0495C2.80601 12.7255 3.43601 12.5635 4.14401 12.5635C5.00801 12.5635 5.77001 12.8155 6.43001 13.3195C7.09001 13.8115 7.52801 14.5555 7.74401 15.5515L13 12.4015L13 14.3635ZM6.55601 19.3315L6.55601 16.9195C6.55601 16.0315 6.34001 15.3655 5.90801 14.9215C5.46401 14.4775 4.87601 14.2555 4.14401 14.2555C3.40001 14.2555 2.82401 14.4775 2.41601 14.9215C2.00801 15.3535 1.80401 16.0195 1.80401 16.9195L1.80401 19.3315L6.55601 19.3315ZM0.454006 0.234296L8.26601 4.3203L13 4.3203L13 5.9583L8.26601 5.9583L0.454006 10.0623L0.454006 8.2443L6.80801 5.1483L0.454006 2.0523L0.454006 0.234296Z" fill="#DBDBDB"/>
</svg>
