<svg width="15" height="235" viewBox="0 0 15 235" fill="none" xmlns="http://www.w3.org/2000/svg">
<path d="M4.63301 225.683C5.73501 225.683 6.65335 226.063 7.38801 226.823C8.11001 227.57 8.47101 228.717 8.47101 230.262L8.47101 232.808L14 232.808L14 234.537L0.757015 234.537L0.757015 230.262C0.757014 228.767 1.11801 227.634 1.84001 226.861C2.56201 226.076 3.49301 225.683 4.63301 225.683ZM7.04601 230.262C7.04601 229.299 6.83701 228.59 6.41901 228.134C6.00101 227.678 5.40568 227.45 4.63301 227.45C2.99901 227.45 2.18201 228.387 2.18201 230.262L2.18201 232.808L7.04601 232.808L7.04601 230.262ZM14 215.561L8.58501 218.715L8.58501 220.805L14 220.805L14 222.534L0.757014 222.534L0.757014 218.259C0.757014 217.258 0.928014 216.416 1.27001 215.732C1.61201 215.035 2.07435 214.516 2.65701 214.174C3.23968 213.832 3.90468 213.661 4.65201 213.661C5.56401 213.661 6.36835 213.927 7.06501 214.459C7.76168 214.978 8.22401 215.764 8.45201 216.815L14 213.49L14 215.561ZM7.19801 220.805L7.19801 218.259C7.19801 217.322 6.97001 216.619 6.51401 216.15C6.04535 215.681 5.42468 215.447 4.65201 215.447C3.86668 215.447 3.25868 215.681 2.82801 216.15C2.39735 216.606 2.18201 217.309 2.18201 218.259L2.18201 220.805L7.19801 220.805ZM14.133 203.97C14.133 205.199 13.848 206.32 13.278 207.333C12.6953 208.347 11.891 209.151 10.865 209.746C9.82635 210.329 8.66101 210.62 7.36901 210.62C6.07701 210.62 4.91801 210.329 3.89201 209.746C2.85335 209.151 2.04901 208.347 1.47901 207.333C0.896347 206.32 0.605013 205.199 0.605013 203.97C0.605013 202.729 0.896346 201.602 1.47901 200.588C2.04901 199.575 2.84701 198.777 3.87301 198.194C4.89901 197.612 6.06435 197.32 7.36901 197.32C8.67368 197.32 9.83901 197.612 10.865 198.194C11.891 198.777 12.6953 199.575 13.278 200.588C13.848 201.602 14.133 202.729 14.133 203.97ZM12.632 203.97C12.632 203.046 12.4167 202.216 11.986 201.481C11.5553 200.734 10.941 200.151 10.143 199.733C9.34501 199.303 8.42035 199.087 7.36901 199.087C6.30501 199.087 5.38035 199.303 4.59501 199.733C3.79701 200.151 3.18268 200.728 2.75201 201.462C2.32135 202.197 2.10601 203.033 2.10601 203.97C2.10601 204.908 2.32135 205.744 2.75201 206.478C3.18268 207.213 3.79701 207.796 4.59501 208.226C5.38035 208.644 6.30501 208.853 7.36901 208.853C8.42035 208.853 9.34501 208.644 10.143 208.226C10.941 207.796 11.5553 207.213 11.986 206.478C12.4167 205.731 12.632 204.895 12.632 203.97ZM0.757013 189.915C0.757013 188.471 1.02935 187.223 1.57401 186.172C2.10601 185.108 2.87235 184.297 3.87301 183.74C4.87368 183.17 6.05168 182.885 7.40701 182.885C8.76235 182.885 9.94035 183.17 10.941 183.74C11.929 184.297 12.689 185.108 13.221 186.172C13.7403 187.223 14 188.471 14 189.915L14 194.038L0.757013 194.038L0.757013 189.915ZM12.575 189.915C12.575 188.205 12.1253 186.9 11.226 186.001C10.314 185.102 9.04101 184.652 7.40701 184.652C5.76035 184.652 4.47468 185.108 3.55001 186.02C2.62535 186.919 2.16301 188.218 2.16301 189.915L2.16301 192.309L12.575 192.309L12.575 189.915ZM0.757012 177.913L9.13601 177.913C10.314 177.913 11.188 177.628 11.758 177.058C12.328 176.476 12.613 175.671 12.613 174.645C12.613 173.632 12.328 172.84 11.758 172.27C11.188 171.688 10.314 171.396 9.13601 171.396L0.757012 171.396L0.757012 169.667L9.11701 169.667C10.219 169.667 11.15 169.889 11.91 170.332C12.6573 170.776 13.2147 171.377 13.582 172.137C13.9493 172.885 14.133 173.727 14.133 174.664C14.133 175.602 13.9493 176.45 13.582 177.21C13.2147 177.958 12.6573 178.553 11.91 178.996C11.15 179.427 10.219 179.642 9.11701 179.642L0.757012 179.642L0.757012 177.913ZM7.36901 166.429C6.07701 166.429 4.91801 166.138 3.89201 165.555C2.85335 164.972 2.04268 164.181 1.46001 163.18C0.877345 162.167 0.586011 161.046 0.586011 159.817C0.586011 158.373 0.934345 157.113 1.63101 156.036C2.32768 154.959 3.31568 154.174 4.59501 153.68L4.59501 155.751C3.79701 156.118 3.18268 156.65 2.75201 157.347C2.32134 158.031 2.10601 158.854 2.10601 159.817C2.10601 160.742 2.32134 161.571 2.75201 162.306C3.18268 163.041 3.79701 163.617 4.59501 164.035C5.38034 164.453 6.30501 164.662 7.36901 164.662C8.42035 164.662 9.34501 164.453 10.143 164.035C10.9283 163.617 11.5363 163.041 11.967 162.306C12.3977 161.571 12.613 160.742 12.613 159.817C12.613 158.854 12.404 158.031 11.986 157.347C11.5553 156.65 10.941 156.118 10.143 155.751L10.143 153.68C11.4097 154.174 12.3913 154.959 13.088 156.036C13.772 157.113 14.114 158.373 14.114 159.817C14.114 161.046 13.829 162.167 13.259 163.18C12.6763 164.181 11.872 164.972 10.846 165.555C9.82001 166.138 8.66101 166.429 7.36901 166.429ZM0.757011 141.955L2.16301 141.955L2.16301 145.565L14 145.565L14 147.294L2.16301 147.294L2.16301 150.923L0.757011 150.923L0.757011 141.955ZM7.36901 133.408C6.07701 133.408 4.91801 133.116 3.89201 132.534C2.85334 131.951 2.04268 131.159 1.46001 130.159C0.877343 129.145 0.58601 128.024 0.58601 126.796C0.58601 125.352 0.934343 124.091 1.63101 123.015C2.32768 121.938 3.31568 121.153 4.59501 120.659L4.59501 122.73C3.79701 123.097 3.18268 123.629 2.75201 124.326C2.32134 125.01 2.10601 125.833 2.10601 126.796C2.10601 127.72 2.32134 128.55 2.75201 129.285C3.18268 130.019 3.79701 130.596 4.59501 131.014C5.38034 131.432 6.30501 131.641 7.36901 131.641C8.42034 131.641 9.34501 131.432 10.143 131.014C10.9283 130.596 11.5363 130.019 11.967 129.285C12.3977 128.55 12.613 127.72 12.613 126.796C12.613 125.833 12.404 125.01 11.986 124.326C11.5553 123.629 10.941 123.097 10.143 122.73L10.143 120.659C11.4097 121.153 12.3913 121.938 13.088 123.015C13.772 124.091 14.114 125.352 14.114 126.796C14.114 128.024 13.829 129.145 13.259 130.159C12.6763 131.159 11.872 131.951 10.846 132.534C9.82001 133.116 8.66101 133.408 7.36901 133.408ZM14.133 111.081C14.133 112.31 13.848 113.431 13.278 114.444C12.6953 115.457 11.891 116.262 10.865 116.857C9.82634 117.44 8.66101 117.731 7.36901 117.731C6.07701 117.731 4.91801 117.44 3.89201 116.857C2.85334 116.262 2.04901 115.457 1.47901 114.444C0.896342 113.431 0.605009 112.31 0.605009 111.081C0.605009 109.84 0.896342 108.712 1.47901 107.699C2.04901 106.686 2.84701 105.888 3.87301 105.305C4.89901 104.722 6.06434 104.431 7.36901 104.431C8.67368 104.431 9.83901 104.722 10.865 105.305C11.891 105.888 12.6953 106.686 13.278 107.699C13.848 108.712 14.133 109.84 14.133 111.081ZM12.632 111.081C12.632 110.156 12.4167 109.327 11.986 108.592C11.5553 107.845 10.941 107.262 10.143 106.844C9.34501 106.413 8.42034 106.198 7.36901 106.198C6.30501 106.198 5.38034 106.413 4.59501 106.844C3.79701 107.262 3.18268 107.838 2.75201 108.573C2.32134 109.308 2.10601 110.144 2.10601 111.081C2.10601 112.018 2.32134 112.854 2.75201 113.589C3.18268 114.324 3.79701 114.906 4.59501 115.337C5.38034 115.755 6.30501 115.964 7.36901 115.964C8.42034 115.964 9.34501 115.755 10.143 115.337C10.941 114.906 11.5553 114.324 11.986 113.589C12.4167 112.842 12.632 112.006 12.632 111.081ZM12.594 99.4193L12.594 94.7833L14 94.7833L14 101.148L0.757009 101.148L0.757009 99.4193L12.594 99.4193ZM12.594 90.2182L12.594 85.5822L14 85.5822L14 91.9472L0.757008 91.9472L0.757008 90.2182L12.594 90.2182ZM2.16301 81.017L6.59001 81.017L6.59001 76.191L8.01501 76.191L8.01501 81.017L12.575 81.017L12.575 75.621L14 75.621L14 82.746L0.738008 82.746L0.738008 75.621L2.16301 75.621L2.16301 81.017ZM7.36901 72.6508C6.07701 72.6508 4.91801 72.3594 3.89201 71.7768C2.85334 71.1941 2.04267 70.4024 1.46001 69.4018C0.877341 68.3884 0.586007 67.2674 0.586007 66.0388C0.586007 64.5948 0.934341 63.3344 1.63101 62.2578C2.32767 61.1811 3.31567 60.3958 4.59501 59.9018L4.59501 61.9728C3.79701 62.3401 3.18267 62.8721 2.75201 63.5688C2.32134 64.2528 2.10601 65.0761 2.10601 66.0388C2.10601 66.9634 2.32134 67.7931 2.75201 68.5278C3.18267 69.2624 3.79701 69.8388 4.59501 70.2568C5.38034 70.6748 6.30501 70.8838 7.36901 70.8838C8.42034 70.8838 9.34501 70.6748 10.143 70.2568C10.9283 69.8388 11.5363 69.2624 11.967 68.5278C12.3977 67.7931 12.613 66.9634 12.613 66.0388C12.613 65.0761 12.404 64.2528 11.986 63.5688C11.5553 62.8721 10.941 62.3401 10.143 61.9728L10.143 59.9018C11.4097 60.3958 12.3913 61.1811 13.088 62.2578C13.772 63.3344 14.114 64.5948 14.114 66.0388C14.114 67.2674 13.829 68.3884 13.259 69.4018C12.6763 70.4024 11.872 71.1941 10.846 71.7768C9.82001 72.3594 8.66101 72.6508 7.36901 72.6508ZM0.757007 48.177L2.16301 48.177L2.16301 51.787L14 51.787L14 53.516L2.16301 53.516L2.16301 57.145L0.757007 57.145L0.757007 48.177ZM0.757006 43.3197L14 43.3197L14 45.0487L0.757006 45.0487L0.757006 43.3197ZM14.133 33.3689C14.133 34.5976 13.848 35.7186 13.278 36.7319C12.6953 37.7453 11.891 38.5496 10.865 39.1449C9.82634 39.7276 8.66101 40.0189 7.36901 40.0189C6.07701 40.0189 4.91801 39.7276 3.89201 39.1449C2.85334 38.5496 2.04901 37.7453 1.47901 36.7319C0.896339 35.7186 0.605006 34.5976 0.605006 33.3689C0.605006 32.1276 0.896339 31.0003 1.47901 29.9869C2.04901 28.9736 2.84701 28.1756 3.87301 27.5929C4.89901 27.0103 6.06434 26.7189 7.36901 26.7189C8.67367 26.7189 9.83901 27.0103 10.865 27.5929C11.891 28.1756 12.6953 28.9736 13.278 29.9869C13.848 31.0003 14.133 32.1276 14.133 33.3689ZM12.632 33.3689C12.632 32.4443 12.4167 31.6146 11.986 30.8799C11.5553 30.1326 10.941 29.5499 10.143 29.1319C9.34501 28.7013 8.42034 28.4859 7.36901 28.4859C6.30501 28.4859 5.38034 28.7013 4.59501 29.1319C3.79701 29.5499 3.18267 30.1263 2.75201 30.8609C2.32134 31.5956 2.10601 32.4316 2.10601 33.3689C2.10601 34.3063 2.32134 35.1423 2.75201 35.8769C3.18267 36.6116 3.79701 37.1943 4.59501 37.6249C5.38034 38.0429 6.30501 38.2519 7.36901 38.2519C8.42034 38.2519 9.34501 38.0429 10.143 37.6249C10.941 37.1943 11.5553 36.6116 11.986 35.8769C12.4167 35.1296 12.632 34.2936 12.632 33.3689ZM14 13.0244L14 14.7534L3.45501 21.7074L14 21.7074L14 23.4364L0.738006 23.4364L0.738006 21.7074L11.264 14.7534L0.738005 14.7534L0.738005 13.0244L14 13.0244ZM14.133 4.87804C14.133 5.75204 13.981 6.53737 13.677 7.23404C13.3603 7.91804 12.9297 8.45637 12.385 8.84904C11.8277 9.2417 11.188 9.44437 10.466 9.45704L10.466 7.61404C11.0867 7.5507 11.6123 7.29737 12.043 6.85404C12.461 6.39804 12.67 5.73937 12.67 4.87804C12.67 4.0547 12.4673 3.4087 12.062 2.94004C11.644 2.4587 11.112 2.21804 10.466 2.21804C9.95934 2.21804 9.54767 2.35737 9.231 2.63604C8.91434 2.9147 8.67367 3.26304 8.50901 3.68104C8.34434 4.09904 8.167 4.6627 7.97701 5.37204C7.74901 6.24604 7.52101 6.94904 7.293 7.48104C7.065 8.00037 6.71034 8.45004 6.22901 8.83004C5.73501 9.19737 5.07634 9.38104 4.25301 9.38104C3.531 9.38104 2.89134 9.19737 2.334 8.83004C1.77667 8.46271 1.346 7.94971 1.042 7.29104C0.738005 6.61971 0.586005 5.85337 0.586005 4.99204C0.586005 3.7507 0.896338 2.73737 1.517 1.95204C2.13767 1.15404 2.961 0.704371 3.987 0.603038L3.987 2.50304C3.48034 2.56637 3.037 2.83237 2.65701 3.30104C2.26434 3.7697 2.068 4.39037 2.068 5.16304C2.068 5.88504 2.258 6.47404 2.638 6.93004C3.00534 7.38604 3.52467 7.61404 4.196 7.61404C4.67734 7.61404 5.07 7.48104 5.374 7.21504C5.678 6.93637 5.91234 6.6007 6.077 6.20804C6.229 5.8027 6.40634 5.23904 6.609 4.51704C6.84967 3.64304 7.09034 2.94004 7.331 2.40804C7.559 1.87604 7.92 1.42004 8.414 1.04004C8.89534 0.660038 9.554 0.470038 10.39 0.470038C11.036 0.470038 11.644 0.641038 12.214 0.983038C12.784 1.32504 13.2463 1.8317 13.601 2.50304C13.9557 3.17437 14.133 3.96604 14.133 4.87804Z" fill="#DBDBDB"/>
</svg>
